<?xml version="1.0" encoding="utf-8"?>
<!-- Generator: Adobe Illustrator 13.0.2, SVG Export Plug-In . SVG Version: 6.00 Build 14948)  -->
<!DOCTYPE svg PUBLIC "-//W3C//DTD SVG 1.1//EN" "http://www.w3.org/Graphics/SVG/1.1/DTD/svg11.dtd">
<svg version="1.1" id="Layer_1" xmlns="http://www.w3.org/2000/svg" xmlns:xlink="http://www.w3.org/1999/xlink" x="0px" y="0px"
	 width="800px" height="400px" viewBox="0 0 800 400" enable-background="new 0 0 800 400" xml:space="preserve">
<path fill-rule="evenodd" clip-rule="evenodd" fill="#737373" d="M770.281,127.655v39.073l0.35,6.747l0.612,6.921h-1.139
	c-6.952-9.462-16.94-14.191-29.962-14.191c-12.501,0-22.253,4.38-29.262,13.141c-7.009,8.76-10.515,21.056-10.515,36.883
	c0,15.83,3.49,28.035,10.471,36.621c6.978,8.588,16.745,12.879,29.306,12.879c13.375,0,23.42-4.875,30.139-14.63h0.788l1.927,12.877
	h11.826v-136.32H770.281z M770.281,219.296c0,12.032-2.235,20.749-6.703,26.15c-4.468,5.404-11.669,8.105-21.597,8.105
	c-8.702,0-15.302-3.124-19.801-9.376c-4.498-6.249-6.744-15.506-6.744-27.771c0-12.091,2.261-21.449,6.788-28.08
	c4.527-6.63,11.055-9.943,19.583-9.943c9.929,0,17.155,2.906,21.683,8.718c4.524,5.811,6.791,15.521,6.791,29.129V219.296z"/>
<path fill-rule="evenodd" clip-rule="evenodd" fill="#737373" d="M680.916,209.396c0-12.968-3.503-23.407-10.512-31.321
	c-7.009-7.913-16.53-11.87-28.562-11.87c-12.851,0-23.085,4.553-30.709,13.665c-7.62,9.111-11.433,21.407-11.433,36.885
	c0,15.361,4.103,27.364,12.31,36.009c8.206,8.643,19.405,12.965,33.6,12.965c6.482,0,12.016-0.482,16.603-1.444
	c4.585-0.964,9.446-2.557,14.586-4.776v-12.965c-10.105,4.322-20.324,6.482-30.662,6.482c-9.814,0-17.422-2.919-22.823-8.762
	c-5.404-5.839-8.251-14.396-8.541-25.67h66.144V209.396z M615.122,206.767c0.816-8.878,3.519-15.827,8.103-20.85
	c4.585-5.022,10.732-7.535,18.441-7.535c7.593,0,13.435,2.439,17.523,7.314c4.087,4.878,6.133,11.902,6.133,21.07H615.122z"/>
<path fill-rule="evenodd" clip-rule="evenodd" fill="#737373" d="M580.252,209.396c0-12.968-3.504-23.407-10.512-31.321
	c-7.01-7.913-16.531-11.87-28.562-11.87c-12.851,0-23.085,4.553-30.708,13.665c-7.621,9.111-11.433,21.407-11.433,36.885
	c0,15.361,4.102,27.364,12.309,36.009c8.207,8.643,19.406,12.965,33.6,12.965c6.482,0,12.017-0.482,16.604-1.444
	c4.584-0.964,9.446-2.557,14.585-4.776v-12.965c-10.104,4.322-20.323,6.482-30.662,6.482c-9.814,0-17.422-2.919-22.823-8.762
	c-5.403-5.839-8.251-14.396-8.541-25.67h66.145V209.396z M514.457,206.767c0.817-8.878,3.52-15.827,8.104-20.85
	s10.732-7.535,18.441-7.535c7.592,0,13.434,2.439,17.523,7.314c4.086,4.878,6.132,11.902,6.132,21.07H514.457z"/>
<path fill-rule="evenodd" clip-rule="evenodd" fill="#737373" d="M427.24,185.258c3.884,2.365,9.827,4.981,17.829,7.842
	c13.435,4.789,22.676,9.931,27.729,15.42c5.051,5.489,7.576,12.615,7.576,21.377c0,11.274-4.086,20.062-12.265,26.37
	c-8.178,6.309-19.273,9.462-33.291,9.462c-15.188,0-26.868-1.955-35.044-5.87V245.49c5.256,2.22,10.979,3.973,17.17,5.256
	c6.192,1.286,12.325,1.93,18.4,1.93c9.929,0,17.404-1.885,22.427-5.652c5.022-3.766,7.535-9.009,7.535-15.725
	c0-4.438-0.892-8.074-2.674-10.908c-1.781-2.832-4.761-5.445-8.935-7.842c-4.178-2.393-10.528-5.11-19.057-8.146
	c-11.914-4.263-20.427-9.316-25.538-15.159c-5.11-5.839-7.665-13.46-7.665-22.864c0-9.872,3.708-17.729,11.127-23.567
	c7.416-5.84,17.228-8.76,29.436-8.76c12.734,0,24.443,2.334,35.132,7.007l-4.642,12.967c-10.574-4.437-20.853-6.658-30.841-6.658
	c-7.885,0-14.046,1.693-18.485,5.079c-4.438,3.392-6.658,8.091-6.658,14.106c0,4.441,0.816,8.077,2.453,10.908
	C420.597,180.295,423.355,182.894,427.24,185.258z"/>
<path fill-rule="evenodd" clip-rule="evenodd" fill="#737373" d="M352.684,258.981c-4.001-4.496-6.001-11.562-6.001-21.2v-61.503
	h-14.104v-5.082l14.104-3.941l4.381-21.553h4.468v23.041h27.948v7.535h-27.948v60.276c0,7.302,1.283,12.703,3.855,16.209
	c2.568,3.503,6.6,5.256,12.09,5.256c5.489,0,10.279-0.467,14.368-1.402v7.009c-4.205,1.402-9.053,2.103-14.542,2.103
	C362.89,265.729,356.684,263.48,352.684,258.981z"/>
<path fill-rule="evenodd" clip-rule="evenodd" fill="#737373" d="M320.049,210.534c0-13.434-3.241-24.062-9.725-31.891
	c-6.482-7.825-15.331-11.738-26.545-11.738c-12.675,0-22.75,4.568-30.225,13.709c-7.478,9.143-11.215,21.307-11.215,36.491
	c0,15.36,3.869,27.307,11.609,35.832c7.739,8.528,18.529,12.791,32.372,12.791c5.489,0,10.513-0.425,15.069-1.271
	c4.556-0.845,9.519-2.438,14.894-4.773v-7.886c-6.309,2.513-11.522,4.146-15.64,4.906s-8.893,1.139-14.324,1.139
	c-11.158,0-19.728-3.446-25.715-10.339c-5.987-6.89-9.039-16.877-9.154-29.962h68.599V210.534z M251.976,209.834
	c0.933-11.391,4.176-20.108,9.725-26.152s12.908-9.067,22.078-9.067c8.469,0,15.098,3.108,19.888,9.329
	c4.788,6.221,7.184,14.851,7.184,25.891H251.976z"/>
<path fill-rule="evenodd" clip-rule="evenodd" fill="#737373" d="M165.854,186.223c3.912,2.425,10.629,5.331,20.15,8.718
	c9.988,3.446,17.492,6.788,22.516,10.029c5.022,3.244,8.688,6.924,10.996,11.041c2.306,4.118,3.46,9.097,3.46,14.936
	c0,10.691-3.928,19.16-11.784,25.409c-7.856,6.249-18.297,9.373-31.321,9.373c-15.653,0-27.656-1.725-36.008-5.168v-8.938
	c9.228,3.915,20.997,5.87,35.307,5.87c10.513,0,18.85-2.408,25.013-7.227c6.161-4.82,9.243-11.142,9.243-18.968
	c0-4.849-1.023-8.862-3.066-12.047c-2.044-3.184-5.374-6.088-9.988-8.718c-4.614-2.629-11.389-5.46-20.325-8.497
	c-13.084-4.499-22.122-9.36-27.116-14.588c-4.993-5.228-7.49-12.192-7.49-20.896c0-9.579,3.752-17.389,11.257-23.436
	c7.504-6.044,17.157-9.065,28.956-9.065c12.031,0,23.333,2.277,33.904,6.83l-3.241,7.712c-10.631-4.439-20.794-6.659-30.488-6.659
	c-9.461,0-16.997,2.191-22.604,6.57c-5.606,4.383-8.411,10.339-8.411,17.874c0,4.729,0.861,8.616,2.585,11.652
	C159.122,181.068,161.94,183.798,165.854,186.223z"/>
<path fill-rule="evenodd" clip-rule="evenodd" fill="#1FB2FF" d="M50.432,286.302l-0.218,0.475c1.338,2.994,4.456,2.911,3.673,5.458
	c-1.211,3.934-6.251,14.118-10.687,22.88h69.991v-168.17c-0.138-0.026-0.291-0.055-0.421-0.08
	C95.886,186.324,50.432,286.302,50.432,286.302z M107.089,43.645c-2.209,28.619,1.708,53.838,6.103,71.743V43.645H107.089z
	 M104.135,43.645H91.946c0.552,34.186,8.326,62.089,14.202,78.446C102.212,104.606,98.917,77.382,104.135,43.645z M88.901,43.645
	H51.475c12.197,32.589,30.873,57.774,45.621,74.157C92.718,101.329,87.822,75.274,88.901,43.645z M89.691,121.435
	c-13.23-16.517-29.47-42.214-40.042-77.79H19.433C41.202,81.119,69.577,106.592,89.691,121.435z M106.837,144.103
	c0.629-1.447-1.522-2.054-3.736-4.269c-12.514-8.276-55.288-39.447-85.308-96.189h-0.827v271.469h4.785
	c4.874-11.217,13.734-29.391,15.477-32.187c1.291-1.61,5.239-0.028,7.281,0.498C55.001,264.536,98.8,162.608,106.837,144.103z"/>
</svg>
