<svg version="1.1" id="Layer_1" xmlns="http://www.w3.org/2000/svg" xmlns:xlink="http://www.w3.org/1999/xlink" x="0px" y="0px"
	 viewBox="0 0 800 600" enable-background="new 0 0 800 600" xml:space="preserve">

		<path style="fill:rgba(0,0,0,0.02)" d="M399.5,1.364c-165.207,0-299.134,133.928-299.134,299.136c0,165.207,133.927,299.136,299.134,299.136
			c165.208,0,299.135-133.929,299.135-299.136C698.635,135.292,564.708,1.364,399.5,1.364z M399.5,528.411
			c-125.872,0-227.912-102.039-227.912-227.911c0-125.873,102.041-227.914,227.912-227.914
			c125.871,0,227.914,102.041,227.914,227.914C627.414,426.372,525.371,528.411,399.5,528.411z M399.5,134.906
			c-91.454,0-165.592,74.139-165.592,165.594c0,91.453,74.139,165.594,165.592,165.594c91.454,0,165.592-74.141,165.592-165.594
			C565.092,209.045,490.954,134.906,399.5,134.906z M399.5,402.881c-56.542,0-102.38-45.831-102.38-102.378
			c0-56.546,45.838-102.383,102.38-102.383c56.543,0,102.38,45.837,102.38,102.383C501.881,357.05,456.044,402.881,399.5,402.881z
			 M399.5,254.208c-25.566,0-46.293,20.726-46.293,46.294c0,25.566,20.727,46.292,46.293,46.292
			c25.566,0,46.293-20.726,46.293-46.292C445.794,274.933,425.066,254.208,399.5,254.208z"/>
	
</svg>
